<svg width="160" height="44" viewBox="0 0 160 44" fill="none" xmlns="http://www.w3.org/2000/svg">
<path d="M13.059 41.9241C9.41628 41.9241 6.59796 40.9202 4.70132 38.9274L4.71521 38.9413C3.13316 37.2528 1.90279 35.2664 1.09571 33.0978C0.288638 30.9293 -0.0790172 28.6218 0.0141491 26.3098C-0.0374691 21.6746 1.3139 17.1321 3.89079 13.2788C6.81912 8.90776 10.4746 6.62554 14.7635 6.51554H15.2035C17.616 6.44048 19.9937 7.10641 22.0163 8.42369C24.0389 9.74097 25.6093 11.6463 26.5161 13.8832V13.911C27.4426 16.054 28.0136 18.3337 28.2066 20.6604L28.4811 23.2854L25.9244 23.9593L20.0967 25.4854L16.4563 26.4314L16.2502 22.6786C16.0985 20.1081 15.5763 19.2837 15.4397 19.1042H15.4258C15.3748 19.1025 15.3239 19.1072 15.2741 19.1181C14.9858 19.1598 14.3119 19.7642 13.6936 21.8531C13.2186 23.3224 12.9821 24.8583 12.993 26.4024V26.4314C12.9566 26.8464 13.0579 27.2619 13.2813 27.6136C13.3358 27.668 13.6936 27.9297 14.8341 27.9297C16.2363 27.9297 18.8867 27.4897 23.5357 25.3731L26.6423 23.957L27.7284 27.1875L30.1195 34.3236L31.0273 37.0042L28.429 38.118C22.4357 40.6886 17.4185 41.9252 13.0613 41.9252L13.059 41.9241Z" fill="#395E84"/>
<path d="M56.1941 41.5813C54.3305 41.5747 52.4698 41.4323 50.6269 41.1552L47.973 40.7696L47.9869 38.0891L48.1247 3.21664L48.1108 0L51.3414 0.164422L58.0085 0.511791L61.0469 0.676213L60.923 3.71454L60.7446 8.40171C63.2756 8.56997 65.7081 9.44671 67.7644 10.9318C69.8208 12.4168 71.4179 14.4503 72.3734 16.7999C73.6316 19.604 74.2154 22.6639 74.0779 25.7343C74.2045 28.5587 73.5276 31.3612 72.1256 33.8164L72.1118 33.8303L72.0978 33.8442C69.1695 38.9853 63.8223 41.5836 56.1941 41.5836V41.5813ZM60.5374 20.5643L60.2213 29.9942C60.6417 29.8314 61.0204 29.5766 61.3296 29.2484C61.6388 28.9202 61.8705 28.527 62.0079 28.0976C62.3409 27.1587 62.4902 26.1645 62.4479 25.1692C62.4217 24.1328 62.1977 23.111 61.7879 22.1587C61.5073 21.5332 61.078 20.9858 60.5374 20.5643V20.5643Z" fill="#395E84"/>
<path d="M108.894 44L108.922 40.5773L109.004 26.5563C109.046 21.4708 109.12 18.3225 108.248 18.3908C107.376 18.4591 107.108 19.023 106.627 20.233V20.2608C106.104 21.6473 105.856 23.1227 105.899 24.6041V24.6319C105.871 27.4108 106.187 32.0424 106.847 38.3912L107.149 41.3195L104.235 41.7456L97.1418 42.7877L93.7607 43.2821L93.6102 39.8768L92.3446 10.1026L92.2207 7.33983L94.9557 6.92761L101.265 5.9654L104.536 5.47098L104.604 6.32319C105.857 5.94566 107.159 5.75563 108.467 5.75929C110.694 5.70857 112.892 6.25886 114.832 7.35226C116.772 8.44565 118.382 10.0417 119.492 11.9726C121.228 14.7843 122.169 18.0147 122.214 21.3191C122.268 23.8341 122.445 30.0207 122.736 39.7112L122.818 42.57L119.973 42.8583L112.317 43.6422L108.894 44V44Z" fill="#395E84"/>
<path fill-rule="evenodd" clip-rule="evenodd" d="M57.4803 15.8073C58.6496 15.834 59.8012 16.0988 60.8647 16.5855C61.9282 17.0723 62.8813 17.7708 63.6657 18.6384C65.2954 20.4298 66.1587 22.7882 66.0707 25.2083C66.0705 26.3841 65.833 27.5477 65.3724 28.6294C64.9118 29.7112 64.2376 30.6888 63.3902 31.5038C62.5741 32.3656 61.5833 33.0432 60.4843 33.4913C59.3852 33.9394 58.2031 34.1477 57.0171 34.1021C57.1271 27.9989 57.3054 21.9789 57.4432 15.9162C57.4432 15.8757 57.4432 15.8212 57.4803 15.8073ZM59.803 20.5906V29.9928C63.8441 29.5944 63.8302 20.9067 59.8447 20.4667C59.8076 20.4806 59.8076 20.5362 59.8076 20.5906H59.803Z" fill="#395E84"/>
<path fill-rule="evenodd" clip-rule="evenodd" d="M37.4571 16.5671C39.9315 16.251 41.3476 18.3676 42.076 20.0998C43.9587 24.5392 42.9004 31.8941 39.0376 33.3925C38.6042 33.552 38.1427 33.6208 37.6816 33.5947C37.2206 33.5686 36.7697 33.4482 36.3571 33.2408C33.9255 31.9903 32.7827 28.5675 32.7827 24.8425C32.7827 21.2959 34.1721 17.7493 36.6732 16.7604C36.9255 16.6638 37.1888 16.5989 37.4571 16.5671V16.5671ZM37.361 20.3198C36.6049 20.842 36.1927 22.6981 36.1927 24.5531C36.1927 26.5053 36.5401 28.3058 37.2649 28.9531C37.3702 29.0574 37.5081 29.1224 37.6556 29.1374C37.8031 29.1523 37.9513 29.1163 38.0754 29.0353C39.2333 28.2514 39.5598 24.4037 38.9832 22.0659C38.7632 21.1593 38.3371 20.0454 37.5937 20.2133C37.5128 20.2394 37.4348 20.274 37.361 20.3163V20.3198Z" fill="#395E84"/>
<path fill-rule="evenodd" clip-rule="evenodd" d="M51.1756 3.24435H51.5878C53.6361 3.39604 55.7388 3.49214 57.8555 3.57436C57.7038 6.14489 57.6493 8.81153 57.5255 11.4099C62.736 11.1076 66.1576 12.7843 68.2939 15.8226C70.0506 18.401 70.998 21.4449 71.015 24.5647C71.0762 25.7757 71.0348 26.9896 70.8911 28.1936C70.6353 30.0852 69.9023 31.8805 68.761 33.4105C67.6197 34.9406 66.1077 36.1549 64.3675 36.9392C61.0408 38.5197 55.7759 38.9319 51.0516 38.0971C51.0794 26.4614 51.1478 14.8592 51.1756 3.24435ZM57.5672 16.9353C57.4027 22.4064 57.1688 27.808 57.031 33.3069C59.8486 33.5384 61.9656 32.9475 63.3821 31.5341C65.4304 29.4858 66.0765 25.2386 64.9487 21.8437C64.5132 20.2843 63.5447 18.927 62.212 18.0078C60.8792 17.0886 59.2664 16.6657 57.654 16.8126C57.6282 16.8209 57.6057 16.8373 57.59 16.8595C57.5744 16.8816 57.5664 16.9082 57.5672 16.9353V16.9353Z" fill="white"/>
<path fill-rule="evenodd" clip-rule="evenodd" d="M112.096 40.6049H111.972C112.15 36.4944 111.89 32.1789 112.054 27.5323C112.143 25.414 112.089 23.292 111.89 21.1812C111.67 19.1885 111.354 17.1945 110.447 16.0262C110.227 15.7353 109.945 15.4962 109.623 15.3257C108.471 15.0891 107.273 15.3109 106.282 15.944C103.904 17.3462 102.831 20.5895 102.818 24.1095C102.882 28.9885 103.198 33.8609 103.766 38.7071C101.443 39.0649 98.9409 39.4632 96.6726 39.7377C96.2604 29.8411 95.7787 19.779 95.436 9.96463C97.5387 9.70294 99.7109 9.29074 101.704 9.05684C101.786 9.74386 101.841 10.4587 101.868 11.2013C103.126 10.2421 104.553 9.52868 106.075 9.09852C107.947 8.68992 109.894 8.77532 111.724 9.34632C113.185 9.89939 114.506 10.7655 115.596 11.884C116.686 13.0024 117.518 14.3459 118.034 15.8201C118.685 17.5211 119.047 19.319 119.106 21.1395C119.38 27.1872 119.408 33.8961 119.642 39.8199C117.113 40.0688 114.584 40.3166 112.096 40.6049Z" fill="white"/>
<path fill-rule="evenodd" clip-rule="evenodd" d="M3.09271 27.2861V25.3085C3.10698 25.3004 3.11854 25.2883 3.12595 25.2736C3.13337 25.259 3.13631 25.2425 3.1344 25.2262C3.22683 21.8872 4.19384 18.6308 5.93883 15.7824C7.46494 13.2675 9.41252 10.9714 12.4126 10.0091C14.1703 9.48917 16.0346 9.44642 17.8142 9.88525C22.6774 11.1219 24.5358 15.6029 25.1542 20.9779C23.2158 21.4411 21.1953 22.0501 19.3392 22.4623C19.0914 19.6996 18.597 16.8407 16.4525 16.1529C13.3737 15.1629 11.7052 18.2152 11.0104 20.194C10.2543 22.3246 9.31989 26.1317 10.3504 28.5656C11.3671 30.9706 14.3915 31.2878 17.4842 30.6684C20.0149 30.0988 22.476 29.2556 24.8242 28.1534C25.6347 30.5178 26.4047 32.9228 27.2164 35.2872C24.8736 36.3083 22.4614 37.1622 19.998 37.8427C17.18 38.6878 14.2282 38.9957 11.2964 38.7505C10.0727 38.6334 8.89494 38.2243 7.86213 37.5576C6.82931 36.8909 5.97159 35.986 5.36104 34.919C3.96352 32.6111 3.18245 29.9827 3.09271 27.2861V27.2861Z" fill="white"/>
<path d="M37.2646 42.378C37.0029 42.378 36.7424 42.378 36.4668 42.3641C29.5669 42.1325 26.5564 38.7074 25.2352 35.8903C24.1213 33.4714 23.5991 29.7465 23.5991 24.1376C23.5171 19.6841 24.9844 15.3404 27.7502 11.8488C30.6229 8.27441 34.0595 6.47388 37.9906 6.47388C40.7533 6.47388 44.7539 7.44999 48.1349 12.0955L48.1211 12.0816C50.8338 15.9002 52.2259 20.5 52.0857 25.182C52.0857 30.4875 51.0957 34.4197 49.0613 37.2242C46.5868 40.6469 42.628 42.3791 37.2669 42.3791L37.2646 42.378ZM36.8663 29.4848C37.0037 29.5302 37.1476 29.5533 37.2924 29.5531H37.3607C37.6224 29.5531 38.1168 29.5531 38.7768 28.6187C39.5117 27.4274 39.8173 26.0208 39.6429 24.632C39.6075 23.1289 39.171 21.6626 38.3785 20.3849C38.2697 20.2136 38.1453 20.0527 38.0068 19.9043C37.8307 20.022 37.6694 20.1604 37.5263 20.3165C36.6145 21.4883 36.1775 22.9604 36.3024 24.4398C36.1799 26.1317 36.3663 27.8318 36.8524 29.457C36.8524 29.457 36.8524 29.4848 36.8663 29.4848Z" fill="#395E84"/>
<path fill-rule="evenodd" clip-rule="evenodd" d="M37.4024 9.59547C41.5535 9.29326 44.1796 11.7677 45.855 14.1321C47.8092 17.0558 48.8958 20.4728 48.9895 23.9881C49.3612 33.1159 46.5973 38.9158 38.309 39.2874C33.8419 39.4936 30.4874 38.353 28.7425 35.8647C27.0276 33.4157 26.6803 29.4025 26.6803 24.9353C26.665 22.975 26.9004 21.0209 27.3808 19.1203C27.8202 17.5458 28.517 16.0548 29.443 14.7076C31.1069 12.2621 33.5257 9.88378 37.4024 9.59547ZM34.928 18.6271C34.1128 19.6525 33.586 20.8768 33.4018 22.1737C33.1641 23.757 33.1225 25.3635 33.278 26.957C33.2881 28.3843 33.6119 29.7919 34.2263 31.0803C34.8352 31.8452 35.6962 32.3689 36.6556 32.5576C37.6149 32.7464 38.6101 32.588 39.4634 32.1108C42.0201 30.6681 43.0645 27.1214 42.5979 23.4092C42.4173 22.0281 41.9989 20.6887 41.3612 19.4503C40.8432 18.3053 39.9774 17.3528 38.8868 16.7281C38.6102 16.6257 38.3149 16.5835 38.0207 16.6042C36.7706 16.8611 35.6649 17.5839 34.928 18.6259V18.6271Z" fill="white"/>
<path fill-rule="evenodd" clip-rule="evenodd" d="M37.4571 16.5671C39.9315 16.251 41.3476 18.3676 42.076 20.0998C43.9587 24.5392 42.9004 31.8941 39.0376 33.3925C38.6042 33.552 38.1427 33.6208 37.6816 33.5947C37.2206 33.5686 36.7697 33.4482 36.3571 33.2408C33.9255 31.9903 32.7827 28.5675 32.7827 24.8425C32.7827 21.2959 34.1721 17.7493 36.6732 16.7604C36.9255 16.6638 37.1888 16.5989 37.4571 16.5671V16.5671ZM37.361 20.3198C36.6049 20.842 36.1927 22.6981 36.1927 24.5531C36.1927 26.5053 36.5401 28.3058 37.2649 28.9531C37.3702 29.0574 37.5081 29.1224 37.6556 29.1374C37.8031 29.1523 37.9513 29.1163 38.0754 29.0353C39.2333 28.2514 39.5598 24.4037 38.9832 22.0659C38.7632 21.1593 38.3371 20.0454 37.5937 20.2133C37.5128 20.2394 37.4348 20.274 37.361 20.3163V20.3198Z" fill="#395E84"/>
<path d="M82.8058 42.378C82.5441 42.378 82.2835 42.378 82.008 42.3641C75.108 42.1325 72.0975 38.7074 70.7764 35.8903C69.6625 33.4714 69.1403 29.7465 69.1403 24.1376C69.0583 19.6841 70.5255 15.3404 73.2913 11.8488C76.1641 8.27441 79.6007 6.47388 83.5318 6.47388C86.2945 6.47388 90.2951 7.44999 93.6761 12.0955L93.6622 12.0816C96.3749 15.9002 97.767 20.5 97.6269 25.182C97.6269 30.4875 96.6369 34.4197 94.6024 37.2242C92.128 40.6469 88.1692 42.3791 82.8081 42.3791L82.8058 42.378ZM82.4075 29.4848C82.5449 29.5302 82.6888 29.5533 82.8336 29.5531H82.9019C83.1636 29.5531 83.658 29.5531 84.318 28.6187C85.0528 27.4274 85.3585 26.0208 85.1841 24.632C85.1486 23.1289 84.7121 21.6626 83.9197 20.3849C83.8109 20.2135 83.6865 20.0527 83.548 19.9043C83.3715 20.022 83.2098 20.1604 83.0663 20.3165C82.1623 21.482 81.7258 22.9429 81.8424 24.4132C81.7186 26.1143 81.905 27.8237 82.3924 29.4581C82.3924 29.472 82.3924 29.4859 82.4063 29.4859L82.4075 29.4848Z" fill="#395E84"/>
<path fill-rule="evenodd" clip-rule="evenodd" d="M82.9416 9.59443C87.1344 9.27833 89.7049 11.7667 91.3943 14.1716C93.3486 17.0952 94.4353 20.5123 94.5287 24.0276C94.8309 33.0314 92.2198 38.9147 83.8899 39.2853C79.3811 39.4914 76.0544 38.3508 74.2794 35.8625C72.5611 33.4576 72.2171 29.347 72.2171 24.9343C72.1942 22.9736 72.4297 21.0184 72.9177 19.1193C73.357 17.5447 74.0538 16.0537 74.9799 14.7066C76.66 12.2611 79.0522 9.88275 82.9416 9.59443ZM82.3233 17.0582C81.3159 17.6514 80.4717 18.4858 79.867 19.4863C79.2622 20.4869 78.9158 21.6221 78.8589 22.7898C78.7008 24.2426 78.7008 25.7082 78.8589 27.1609C78.8902 28.4662 79.1699 29.7536 79.6833 30.9542C80.6455 32.7142 83.5043 33.0986 85.2921 31.9442C88.7288 29.7314 88.9488 23.312 87.029 19.5732C86.4767 18.3532 85.5335 17.3521 84.3484 16.7282C84.0992 16.6308 83.8317 16.5885 83.5645 16.6043C83.1261 16.6769 82.7051 16.8309 82.3233 17.0582V17.0582Z" fill="white"/>
<path fill-rule="evenodd" clip-rule="evenodd" d="M82.955 16.5671C85.4294 16.251 86.8444 18.3676 87.5738 20.0998C89.4566 24.5392 88.3983 31.8941 84.5356 33.3925C84.1022 33.552 83.6406 33.6208 83.1795 33.5947C82.7184 33.5686 82.2677 33.4482 81.855 33.2408C79.4234 31.9903 78.2806 28.5675 78.2806 24.8425C78.2806 21.2959 79.67 17.7493 82.1711 16.7604C82.4239 16.6654 82.687 16.6005 82.955 16.5671ZM82.8728 20.3198C82.1167 20.842 81.7045 22.6981 81.7045 24.5531C81.7045 26.5053 82.0518 28.3058 82.7767 28.9531C82.882 29.0574 83.0199 29.1224 83.1674 29.1374C83.3149 29.1523 83.4631 29.1163 83.5872 29.0353C84.7451 28.2514 85.0716 24.4037 84.495 22.0659C84.275 21.1593 83.8489 20.0454 83.1055 20.2133C83.0236 20.2367 82.9453 20.2714 82.8728 20.3163V20.3198Z" fill="#395E84"/>
<path d="M147.094 26.9975C147.162 21.0042 146.16 16.0287 143.713 12.4681C141.294 8.96319 137.569 6.54318 131.424 6.83265C124.428 7.16265 120.854 12.0698 119.025 17.4031C117.933 20.6141 117.512 24.0153 117.789 27.3958C118.353 34.269 121.556 38.9747 127.149 40.839C130.35 41.873 133.787 41.9259 137.018 40.9906C142.808 39.2445 145.842 34.6396 148.606 29.759C146.998 28.9485 145.349 28.1785 143.823 27.2707C144.95 27.2175 146.008 27.0936 147.094 26.9975ZM133.403 30.4341C133.153 30.4716 132.899 30.4809 132.647 30.4619C132.059 30.4316 131.501 30.1963 131.069 29.7969C130.637 29.3974 130.359 28.8592 130.283 28.2758C132.125 28.0697 133.911 27.8358 135.78 27.6575C135.829 28.3397 135.606 29.0136 135.161 29.5331C134.716 30.0526 134.085 30.3759 133.403 30.4329V30.4341ZM127.551 20.9081C127.387 17.9253 129.393 16.5231 131.744 16.0148C132.181 15.9583 132.624 15.9443 133.064 15.9731C134.099 16.0251 135.084 16.4388 135.846 17.1422C136.607 17.8455 137.098 18.7939 137.232 19.822C133.994 20.1659 130.833 20.592 127.551 20.9081Z" fill="#395E84"/>
<path fill-rule="evenodd" clip-rule="evenodd" d="M144.262 30.997V31.0387C142.838 33.5757 140.759 35.6836 138.241 37.142C135.128 38.6903 131.536 38.9713 128.221 37.9259C126.801 37.4868 125.5 36.7319 124.415 35.7177C123.329 34.7035 122.487 33.4565 121.953 32.0704C120.718 28.6647 120.433 24.987 121.129 21.4316C121.637 18.3644 122.93 15.4807 124.881 13.06C126.778 10.8739 129.582 9.54119 133.83 9.9673C141.009 10.6817 143.556 16.5928 143.892 24.1944C138.218 24.6749 132.537 25.1566 126.902 25.6788C127.164 29.2799 128.208 32.1804 131.649 32.5243C133.297 32.7069 134.959 32.3602 136.397 31.5343C137.566 30.7467 138.471 29.6261 138.995 28.3177C140.755 29.1954 142.492 30.1309 144.262 30.997ZM132.18 15.9872C129.361 16.125 128.001 18.1038 127.726 20.8504C130.599 20.5621 133.431 20.2321 136.262 19.9021C135.808 17.7183 134.708 15.8633 132.18 15.9872Z" fill="white"/>
<path fill-rule="evenodd" clip-rule="evenodd" d="M131.701 15.9871C132.071 15.9732 132.457 15.9732 132.827 15.9593C135.124 16.2893 136.764 17.5399 137.061 19.8082C133.83 20.1382 130.545 20.606 127.398 20.8804C127.314 17.9521 129.128 16.4954 131.701 15.9871ZM130.285 19.3277C131.535 19.2177 132.759 19.066 133.969 18.9154C133.747 17.0315 130.118 17.306 130.284 19.3265L130.285 19.3277Z" fill="#395E84"/>
<path d="M151.987 9.59418H150.214V14.5014H149.28V9.59418H147.506V8.83807H151.987V9.59418ZM159.369 14.5014H158.434V9.7725H158.406L156.554 14.5014H155.963L154.11 9.7725H154.083V14.5014H153.148V8.83807H154.591L156.282 13.1408L157.944 8.83807H159.374L159.369 14.5014Z" fill="white"/>
</svg>
