<svg width="291" height="32" viewBox="0 0 291 32" fill="none" xmlns="http://www.w3.org/2000/svg">
<path d="M2.56 0H47.36C48.7739 0 49.92 1.14618 49.92 2.56V29.44C49.92 30.8539 48.7739 32 47.36 32H2.56C1.14618 32 0 30.8539 0 29.44V2.56C0 1.14618 1.14618 0 2.56 0Z" fill="#0E4595"/>
<path d="M18.7649 22.3187L20.9 9.79003H24.315L22.1784 22.3187H18.7649ZM34.5159 10.0601C33.8394 9.80629 32.7792 9.53391 31.4553 9.53391C28.0809 9.53391 25.7039 11.2331 25.6838 13.6685C25.6646 15.4688 27.3807 16.4731 28.6759 17.0724C30.0053 17.6865 30.452 18.0781 30.4458 18.6265C30.4374 19.4663 29.3843 19.8499 28.4028 19.8499C27.0359 19.8499 26.3098 19.6601 25.1882 19.1923L24.7482 18.9932L24.2689 21.7979C25.0665 22.1476 26.5415 22.4506 28.0729 22.4663C31.6627 22.4663 33.9929 20.7865 34.0195 18.1858C34.0323 16.7606 33.1225 15.676 31.1523 14.7818C29.9587 14.2023 29.2277 13.8154 29.2354 13.2286C29.2354 12.7079 29.8542 12.1509 31.1911 12.1509C32.3078 12.1337 33.1168 12.3772 33.7471 12.6309L34.0531 12.7756L34.5159 10.0601ZM43.3038 9.78984H40.6649C39.8475 9.78984 39.2357 10.013 38.8767 10.8288L33.8051 22.3104H37.3911C37.3911 22.3104 37.9773 20.7666 38.1099 20.4277C38.5019 20.4277 41.9854 20.4331 42.4836 20.4331C42.5857 20.8716 42.8989 22.3104 42.8989 22.3104H46.0678L43.3038 9.78946V9.78984ZM39.117 17.8801C39.3994 17.1582 40.4777 14.3778 40.4777 14.3778C40.4574 14.4112 40.7579 13.6524 40.9304 13.182L41.1611 14.2623C41.1611 14.2623 41.8151 17.253 41.9518 17.8801H39.117ZM15.8658 9.78984L12.5224 18.3339L12.1661 16.5975C11.5437 14.5961 9.60452 12.4276 7.43665 11.342L10.4937 22.2988L14.1069 22.2947L19.4831 9.78971H15.8658" fill="white"/>
<path d="M9.40287 9.78938H3.89625L3.85266 10.0501C8.13669 11.0871 10.9714 13.5933 12.1483 16.6043L10.9509 10.8469C10.7442 10.0536 10.1447 9.81684 9.403 9.78912" fill="#F2AE14"/>
<path d="M62.56 0H107.36C108.774 0 109.92 1.14618 109.92 2.56V29.44C109.92 30.8539 108.774 32 107.36 32H62.56C61.1462 32 60 30.8539 60 29.44V2.56C60 1.14618 61.1462 0 62.56 0Z" fill="#16366F"/>
<path d="M88.7367 16C88.7367 22.3452 83.593 27.488 77.248 27.488C70.903 27.488 65.76 22.3449 65.76 16C65.76 9.65551 70.9032 4.51202 77.248 4.51202C83.5928 4.51202 88.7367 9.6557 88.7367 16Z" fill="#D9222A"/>
<path d="M92.6714 4.51163C89.7031 4.51163 86.9983 5.63777 84.9594 7.48545C84.5441 7.86235 84.1563 8.26862 83.7994 8.70119H86.1204C86.4383 9.08756 86.7307 9.49403 86.9963 9.91803H82.9236C82.6787 10.3098 82.4577 10.716 82.2618 11.1345H87.6578C87.8429 11.5304 88.0054 11.9365 88.1442 12.3508H81.7754C81.6416 12.7498 81.5302 13.156 81.4415 13.5674H88.4777C88.6498 14.3667 88.7365 15.1822 88.7363 15.9999C88.7363 17.2757 88.5281 18.5031 88.1441 19.6492H81.7753C81.9138 20.0638 82.0761 20.47 82.2614 20.8658H87.6577C87.4616 21.2844 87.2404 21.6907 86.9954 22.0826H82.9234C83.1893 22.5069 83.4822 22.9133 83.7993 23.2984H86.1198C85.7633 23.7318 85.3755 24.1384 84.9595 24.5151C86.9985 26.3626 89.703 27.4882 92.6715 27.4882C99.0163 27.4881 104.16 22.345 104.16 16.0002C104.16 9.65588 99.0164 4.5122 92.6715 4.5122" fill="#EE9F2D"/>
<path d="M102.629 22.4038C102.629 22.1989 102.795 22.0325 103 22.0325C103.205 22.0325 103.371 22.1989 103.371 22.4038C103.371 22.6085 103.205 22.7749 103 22.7749C102.795 22.7749 102.629 22.6087 102.629 22.4038ZM103 22.6859C103.156 22.6859 103.282 22.5595 103.282 22.4038C103.282 22.2481 103.156 22.122 103 22.122H103C102.845 22.1217 102.718 22.2476 102.718 22.403V22.4039C102.718 22.5595 102.844 22.6859 103 22.686C103 22.6859 103 22.6859 103 22.6859ZM102.95 22.5669H102.874V22.2409H103.011C103.04 22.2409 103.07 22.2409 103.095 22.2571C103.121 22.2749 103.136 22.3064 103.136 22.3389C103.136 22.3754 103.115 22.4096 103.08 22.4229L103.14 22.5669H103.056L103.006 22.4379H102.95V22.5669H102.95ZM102.95 22.3819H102.992C103.008 22.3819 103.024 22.3832 103.038 22.3755C103.051 22.3675 103.057 22.3525 103.057 22.3381C103.057 22.3257 103.05 22.3113 103.039 22.3051C103.026 22.2967 103.005 22.2987 102.99 22.2987H102.95V22.3819ZM74.5659 17.2579C74.435 17.2427 74.3774 17.2386 74.2875 17.2386C73.5806 17.2386 73.2228 17.4811 73.2228 17.9598C73.2228 18.2549 73.3975 18.4427 73.6699 18.4427C74.178 18.4427 74.5441 17.9589 74.5659 17.2579ZM75.4729 19.3696H74.4395L74.4633 18.8784C74.1481 19.2667 73.7275 19.4512 73.1561 19.4512C72.4801 19.4512 72.0166 18.9232 72.0166 18.1565C72.0166 17.003 72.8228 16.3299 74.2065 16.3299C74.3478 16.3299 74.5291 16.3427 74.7147 16.3664C74.7534 16.2101 74.7636 16.1433 74.7636 16.0592C74.7636 15.745 74.5462 15.6279 73.9636 15.6279C73.3534 15.621 72.8502 15.7733 72.6436 15.8413C72.6566 15.7626 72.8164 14.7752 72.8164 14.7752C73.4379 14.593 73.8478 14.5245 74.3092 14.5245C75.3801 14.5245 75.9473 15.0053 75.9463 15.9141C75.9483 16.1576 75.9081 16.4581 75.8452 16.853C75.7369 17.5398 75.5047 19.011 75.4729 19.3696ZM71.4948 19.3696H70.2475L70.962 14.8898L69.3668 19.3696H68.5168L68.4119 14.9154L67.6609 19.3696H66.4934L67.4686 13.5422H69.2619L69.3707 16.804L70.4646 13.5422H72.4593L71.4948 19.3696ZM94.2135 17.2579C94.0831 17.2427 94.0252 17.2386 93.9356 17.2386C93.229 17.2386 92.871 17.4811 92.871 17.9598C92.871 18.2549 93.0455 18.4427 93.3179 18.4427C93.826 18.4427 94.1924 17.9589 94.2135 17.2579ZM95.1212 19.3696H94.0879L94.1113 18.8784C93.7961 19.2667 93.3753 19.4512 92.8044 19.4512C92.1282 19.4512 91.6652 18.9232 91.6652 18.1565C91.6652 17.003 92.4708 16.3299 93.8548 16.3299C93.9961 16.3299 94.1771 16.3427 94.3625 16.3664C94.4012 16.2101 94.4114 16.1433 94.4114 16.0592C94.4114 15.745 94.1943 15.6279 93.6116 15.6279C93.0015 15.621 92.4988 15.7733 92.2913 15.8413C92.3044 15.7626 92.4647 14.7752 92.4647 14.7752C93.0863 14.593 93.4959 14.5245 93.9566 14.5245C95.0281 14.5245 95.5953 15.0053 95.5943 15.9141C95.5963 16.1576 95.5561 16.4581 95.4932 16.853C95.3855 17.5398 95.1527 19.011 95.1212 19.3696ZM81.0162 19.2976C80.6748 19.4051 80.4087 19.4512 80.1202 19.4512C79.4826 19.4512 79.1346 19.0848 79.1346 18.4101C79.1255 18.2008 79.2263 17.6498 79.3055 17.1469C79.3775 16.7042 79.8463 13.913 79.8463 13.913H81.086L80.9413 14.6304H81.6901L81.5209 15.7693H80.7694C80.6254 16.6706 80.4204 17.7933 80.418 17.9421C80.418 18.1864 80.5484 18.293 80.8449 18.293C80.987 18.293 81.0971 18.2786 81.1812 18.2482L81.0162 19.2976ZM84.8172 19.2592C84.3914 19.3893 83.9804 19.4523 83.545 19.4512C82.1573 19.4499 81.4338 18.7251 81.4338 17.3372C81.4338 15.7171 82.3541 14.5246 83.6034 14.5246C84.6255 14.5246 85.2783 15.1923 85.2783 16.2395C85.2783 16.587 85.2335 16.9262 85.1255 17.4051H82.6567C82.5733 18.0926 83.0132 18.379 83.7343 18.379C84.1781 18.379 84.5783 18.2875 85.0234 18.0805L84.8172 19.2592ZM84.1205 16.4496C84.1273 16.3509 84.2519 15.6037 83.5436 15.6037C83.1487 15.6037 82.8663 15.9048 82.7513 16.4496H84.1205ZM76.2216 16.1285C76.2216 16.728 76.5122 17.1413 77.1714 17.4518C77.6765 17.6892 77.7547 17.7596 77.7547 17.9747C77.7547 18.2702 77.5319 18.4035 77.0384 18.4035C76.6664 18.4035 76.3203 18.3454 75.9211 18.2166C75.9211 18.2166 75.757 19.2611 75.7495 19.3111C76.0331 19.3729 76.2859 19.4302 77.0475 19.4512C78.3634 19.4512 78.9712 18.9502 78.9712 17.8672C78.9712 17.216 78.7168 16.8339 78.092 16.5467C77.5691 16.3067 77.509 16.2531 77.509 16.0318C77.509 15.7755 77.7163 15.6448 78.1195 15.6448C78.3643 15.6448 78.6987 15.6709 79.0155 15.7161L79.1931 14.6169C78.8701 14.5657 78.3805 14.5246 78.0955 14.5246C76.7003 14.5246 76.2173 15.2533 76.2216 16.1285ZM90.8834 14.6491C91.2298 14.6491 91.5527 14.74 91.9978 14.964L92.2018 13.6992C92.0191 13.6275 91.3759 13.2064 90.8311 13.2064C89.9964 13.2064 89.2909 13.6205 88.7947 14.304C88.0708 14.0643 87.7733 14.5488 87.4085 15.0315L87.0845 15.107C87.109 14.9481 87.1312 14.7902 87.1237 14.6304H85.9784C85.8219 16.0971 85.5445 17.5827 85.3275 19.0512L85.2709 19.3697H86.5186C86.7269 18.0165 86.8411 17.1501 86.9104 16.5638L87.3803 16.3024C87.4504 16.0413 87.6701 15.9531 88.1109 15.9637C88.0516 16.2842 88.022 16.6095 88.0224 16.9355C88.0224 18.4859 88.8589 19.4512 90.2016 19.4512C90.5474 19.4512 90.8443 19.4057 91.3037 19.2812L91.5233 17.9525C91.1099 18.1561 90.7706 18.2518 90.4634 18.2518C89.7384 18.2518 89.2997 17.7166 89.2997 16.832C89.2996 15.5488 89.9522 14.6491 90.8834 14.6491Z" fill="black"/>
<path d="M71.8534 19.0233H70.606L71.3209 14.5441L69.7257 19.0233H68.8756L68.7705 14.5697L68.0196 19.0233H66.8521L67.8273 13.1967H69.6206L69.671 16.8038L70.8809 13.1967H72.8179L71.8534 19.0233Z" fill="white"/>
<path d="M101.441 13.5424L101.165 15.2261C100.824 14.7773 100.457 14.4525 99.9737 14.4525C99.3443 14.4525 98.7715 14.9296 98.3966 15.6317C97.8745 15.5234 97.3344 15.3397 97.3344 15.3397L97.3341 15.344C97.3762 14.9514 97.393 14.712 97.3893 14.6306H96.2437C96.0877 16.0973 95.8104 17.5829 95.5937 19.0514L95.5365 19.3699H96.784C96.9525 18.2757 97.0816 17.3671 97.1765 16.6466C97.6027 16.2615 97.816 15.9255 98.2466 15.9479C98.056 16.4091 97.9442 16.9402 97.9442 17.485C97.9442 18.6698 98.5437 19.4514 99.4504 19.4514C99.9074 19.4514 100.258 19.2938 100.6 18.9285L100.542 19.3691H101.722L102.671 13.5424H101.441ZM99.8816 18.2746C99.457 18.2746 99.2427 17.9605 99.2427 17.3404C99.2427 16.409 99.644 15.7484 100.21 15.7484C100.638 15.7484 100.87 16.0751 100.87 16.677C100.87 17.6165 100.463 18.2746 99.8816 18.2746Z" fill="black"/>
<path d="M74.9242 16.9127C74.7935 16.8976 74.7356 16.8935 74.646 16.8935C73.9391 16.8935 73.5814 17.136 73.5814 17.6146C73.5814 17.9093 73.7562 18.0976 74.0282 18.0976C74.5366 18.0976 74.9028 17.6138 74.9242 16.9127ZM75.8316 19.0237H74.7983L74.8218 18.5333C74.5068 18.9207 74.0858 19.1061 73.5148 19.1061C72.8385 19.1061 72.3754 18.5781 72.3754 17.8114C72.3754 16.6574 73.1812 15.9847 74.5652 15.9847C74.7066 15.9847 74.8879 15.9975 75.0732 16.0213C75.1119 15.865 75.122 15.7981 75.122 15.7136C75.122 15.3995 74.905 15.2829 74.3222 15.2829C73.7119 15.2759 73.209 15.4283 73.002 15.4955C73.015 15.417 73.1748 14.4306 73.1748 14.4306C73.7962 14.2477 74.2065 14.1791 74.6673 14.1791C75.7386 14.1791 76.306 14.6603 76.305 15.5682C76.3068 15.8127 76.2662 16.113 76.2036 16.5074C76.0956 17.1938 75.8631 18.6658 75.8316 19.0237ZM92.5599 13.3538L92.3556 14.6189C91.9108 14.3952 91.5876 14.304 91.2416 14.304C90.3103 14.304 89.6576 15.2037 89.6576 16.4868C89.6576 17.3714 90.0964 17.9064 90.8213 17.9064C91.1285 17.9064 91.4674 17.8109 91.8807 17.6071L91.6619 18.9351C91.2021 19.0604 90.9056 19.1061 90.5594 19.1061C89.2169 19.1061 88.3802 18.1407 88.3802 16.5903C88.3802 14.5071 89.536 13.0511 91.189 13.0511C91.7335 13.0512 92.377 13.2821 92.5599 13.3538ZM94.5722 16.9127C94.4416 16.8976 94.384 16.8935 94.2941 16.8935C93.5874 16.8935 93.2295 17.136 93.2295 17.6146C93.2295 17.9093 93.4041 18.0976 93.6765 18.0976C94.1844 18.0976 94.5508 17.6138 94.5722 16.9127ZM95.4797 19.0237H94.4461L94.4697 18.5333C94.1546 18.9207 93.7337 19.1061 93.1629 19.1061C92.4868 19.1061 92.0234 18.5781 92.0234 17.8114C92.0234 16.6574 92.8295 15.9847 94.213 15.9847C94.3546 15.9847 94.5357 15.9975 94.7212 16.0213C94.7597 15.865 94.77 15.7981 94.77 15.7136C94.77 15.3995 94.5529 15.2829 93.9703 15.2829C93.3602 15.2759 92.8569 15.4283 92.65 15.4955C92.6631 15.417 92.8231 14.4306 92.8231 14.4306C93.4445 14.2477 93.8545 14.1791 94.3153 14.1791C95.3868 14.1791 95.954 14.6603 95.9526 15.5682C95.9548 15.8127 95.9145 16.113 95.8516 16.5074C95.7439 17.1938 95.5108 18.6658 95.4797 19.0237ZM81.3747 18.9519C81.0331 19.0594 80.767 19.1061 80.4787 19.1061C79.8411 19.1061 79.4931 18.7396 79.4931 18.065C79.4843 17.8551 79.5851 17.3047 79.6643 16.8018C79.736 16.3586 80.2049 13.5677 80.2049 13.5677H81.4443L81.2998 14.2853H81.9361L81.7667 15.4237H81.1283C80.9843 16.3255 80.7787 17.4473 80.7766 17.5964C80.7766 17.8416 80.9073 17.9473 81.2035 17.9473C81.3456 17.9473 81.4555 17.9335 81.5398 17.9031L81.3747 18.9519ZM85.1758 18.9141C84.7502 19.0442 84.3387 19.1069 83.9035 19.1061C82.5157 19.1047 81.7923 18.3799 81.7923 16.992C81.7923 15.3714 82.7126 14.1792 83.9619 14.1792C84.984 14.1792 85.6368 14.8466 85.6368 15.8944C85.6368 16.2421 85.592 16.5813 85.4843 17.0599H83.0155C82.932 17.7474 83.372 18.0341 84.0931 18.0341C84.5366 18.0341 84.9371 17.9423 85.3819 17.7348L85.1758 18.9141ZM84.4787 16.1037C84.4862 16.0053 84.6105 15.2578 83.9019 15.2578C83.5073 15.2578 83.2248 15.5597 83.1099 16.1037H84.4787ZM76.5798 15.7835C76.5798 16.3828 76.8705 16.7957 77.5297 17.1067C78.0347 17.344 78.1129 17.4146 78.1129 17.6295C78.1129 17.925 77.89 18.0583 77.3969 18.0583C77.0246 18.0583 76.6785 18.0002 76.279 17.8714C76.279 17.8714 76.1156 18.9159 76.1082 18.9658C76.391 19.0277 76.6441 19.0842 77.4057 19.1061C78.722 19.1061 79.3295 18.605 79.3295 17.5223C79.3295 16.8708 79.0753 16.4887 78.4502 16.2016C77.9275 15.9611 77.8671 15.9083 77.8671 15.6866C77.8671 15.4306 78.0747 15.2989 78.4777 15.2989C78.7222 15.2989 79.0566 15.3258 79.3739 15.3709L79.5513 14.2714C79.2287 14.2202 78.7391 14.1792 78.4539 14.1792C77.0585 14.1792 76.5759 14.9074 76.5798 15.7835ZM102.081 19.0237H100.901L100.959 18.5825C100.617 18.9484 100.267 19.1061 99.8094 19.1061C98.9027 19.1061 98.3035 18.3244 98.3035 17.1397C98.3035 15.5634 99.2329 14.2345 100.333 14.2345C100.817 14.2345 101.183 14.4322 101.524 14.8807L101.8 13.197H103.03L102.081 19.0237ZM100.241 17.9287C100.822 17.9287 101.23 17.2706 101.23 16.3317C101.23 15.7298 100.997 15.4032 100.569 15.4032C100.003 15.4032 99.6015 16.0635 99.6015 16.9952C99.6014 17.6151 99.8163 17.9287 100.241 17.9287ZM96.603 14.2853C96.4469 15.752 96.1695 17.2376 95.9526 18.7053L95.8956 19.0237H97.143C97.5891 16.1261 97.6971 15.5602 98.3966 15.6311C98.5081 15.0381 98.7155 14.5186 98.8702 14.2565C98.3477 14.1477 98.056 14.4429 97.6741 15.0037C97.7043 14.7613 97.7595 14.5259 97.7486 14.2853H96.603ZM86.3361 14.2853C86.1796 15.752 85.9022 17.2376 85.6854 18.7053L85.6287 19.0237H86.8767C87.3222 16.1261 87.43 15.5602 88.1291 15.6311C88.2411 15.0381 88.4486 14.5186 88.6027 14.2565C88.0808 14.1477 87.7888 14.4429 87.4073 15.0037C87.4374 14.7613 87.4921 14.5259 87.4816 14.2853H86.3361ZM102.629 18.6528C102.629 18.4471 102.795 18.2816 103 18.2816C103.204 18.2814 103.37 18.4471 103.37 18.6518V18.6528C103.37 18.8576 103.204 19.0236 103 19.0237C102.795 19.0236 102.629 18.8576 102.629 18.6528ZM103 18.9346C103.155 18.9347 103.281 18.8085 103.281 18.6529V18.6528C103.281 18.4971 103.155 18.3708 103 18.3707H103C102.844 18.3708 102.717 18.497 102.717 18.6528C102.718 18.8085 102.844 18.9346 103 18.9346ZM102.949 18.8149H102.873V18.4896H103.011C103.04 18.4896 103.069 18.4901 103.094 18.5058C103.121 18.5239 103.136 18.5549 103.136 18.5873C103.136 18.6241 103.114 18.6586 103.079 18.6716L103.139 18.8147H103.055L103.005 18.6862H102.949V18.8147V18.8149ZM102.949 18.6306H102.991C103.007 18.6306 103.024 18.6318 103.038 18.6242C103.05 18.6162 103.057 18.6011 103.057 18.5866C103.056 18.5732 103.049 18.5608 103.038 18.5531C103.025 18.5456 103.004 18.5477 102.99 18.5477H102.949V18.6306H102.949Z" fill="white"/>
<path d="M120.175 0.174999V31.825H170.201V0.174999H120.175Z" fill="white" stroke="#CCCCCC" stroke-width="0.35"/>
<path d="M120.839 26.8001H169.535V31.1665H120.839V26.8001Z" fill="#F7B600"/>
<path d="M120.839 5.20529H169.535V0.839365H120.839V5.20529Z" fill="#1A1F71"/>
<path d="M144.219 9.14711L141.779 20.5557H138.827L141.268 9.14711H144.219ZM156.636 16.5137L158.19 12.2294L159.083 16.5137H156.636ZM159.931 20.5557H162.66L160.275 9.14711H157.758C157.19 9.14711 156.713 9.47665 156.501 9.98345L152.072 20.5557H155.171L155.786 18.8515H159.573L159.931 20.5557ZM152.226 16.8309C152.238 13.8204 148.063 13.6534 148.091 12.3082C148.101 11.8994 148.49 11.4639 149.343 11.3527C149.765 11.2981 150.932 11.2545 152.254 11.8635L152.771 9.44284C152.06 9.18606 151.147 8.93884 150.01 8.93884C147.092 8.93884 145.039 10.4886 145.023 12.7096C145.004 14.3524 146.489 15.268 147.606 15.8152C148.757 16.374 149.142 16.7331 149.137 17.2325C149.129 17.9979 148.218 18.3368 147.372 18.3494C145.887 18.3729 145.027 17.9482 144.34 17.6285L143.805 20.1293C144.495 20.4458 145.768 20.7208 147.086 20.7348C150.188 20.7348 152.217 19.2027 152.226 16.8309ZM140.001 9.14711L135.219 20.5557H132.099L129.746 11.4506C129.603 10.8911 129.479 10.6852 129.045 10.4487C128.335 10.0632 127.163 9.70265 126.133 9.47829L126.203 9.14711H131.226C131.865 9.14711 132.441 9.57274 132.587 10.3097L133.83 16.912L136.9 9.14711H140.001Z" fill="#1A1F71"/>
<path d="M147.997 23.696H146.797V24.8122H148.139V25.1478H146.393V22.051H148.07V22.3866H146.797V23.365H147.997V23.696Z" fill="#1A1F71"/>
<path d="M148.758 21.8858H149.163V25.1477H148.758V21.8858Z" fill="#1A1F71"/>
<path d="M151.367 23.8199C151.372 23.5673 151.262 23.1675 150.807 23.1675C150.394 23.1675 150.219 23.5398 150.187 23.8199H151.367ZM150.182 24.1093C150.191 24.6562 150.536 24.8813 150.945 24.8813C151.234 24.8813 151.413 24.8307 151.561 24.7665L151.634 25.0559C151.492 25.1201 151.244 25.1982 150.89 25.1982C150.205 25.1982 149.797 24.7434 149.797 24.0727C149.797 23.4019 150.191 22.8781 150.839 22.8781C151.57 22.8781 151.758 23.5122 151.758 23.9211C151.758 24.0036 151.753 24.0634 151.744 24.1093H150.182Z" fill="#1A1F71"/>
<path d="M153.958 25.0696C153.852 25.1202 153.618 25.1983 153.319 25.1983C152.648 25.1983 152.212 24.7435 152.212 24.0635C152.212 23.379 152.68 22.8782 153.406 22.8782C153.645 22.8782 153.856 22.9377 153.967 22.9976L153.875 23.3055C153.778 23.2549 153.627 23.1996 153.406 23.1996C152.896 23.1996 152.621 23.5809 152.621 24.0406C152.621 24.5551 152.952 24.8721 153.393 24.8721C153.622 24.8721 153.774 24.817 153.889 24.7664L153.958 25.0696Z" fill="#1A1F71"/>
<path d="M155.092 22.3911V22.9241H155.67V23.2317H155.092V24.4309C155.092 24.7068 155.17 24.8628 155.395 24.8628C155.505 24.8628 155.57 24.8537 155.629 24.8351L155.648 25.1432C155.57 25.1707 155.446 25.1982 155.289 25.1982C155.101 25.1982 154.949 25.1338 154.853 25.0284C154.743 24.9041 154.697 24.7068 154.697 24.4449V23.2317H154.352V22.9241H154.697V22.5106L155.092 22.3911Z" fill="#1A1F71"/>
<path d="M156.235 23.6179C156.235 23.3559 156.23 23.1309 156.217 22.924H156.57L156.589 23.365H156.602C156.704 23.0665 156.952 22.8781 157.223 22.8781C157.264 22.8781 157.296 22.8827 157.333 22.8872V23.2687C157.292 23.2594 157.251 23.2594 157.195 23.2594C156.911 23.2594 156.708 23.4707 156.653 23.7741C156.644 23.8292 156.639 23.898 156.639 23.9626V25.1478H156.235V23.6179Z" fill="#1A1F71"/>
<path d="M158.058 24.0406C158.058 24.5276 158.334 24.8951 158.729 24.8951C159.115 24.8951 159.404 24.532 159.404 24.0313C159.404 23.6546 159.216 23.1812 158.738 23.1812C158.265 23.1812 158.058 23.6224 158.058 24.0406ZM159.818 24.0175C159.818 24.8398 159.243 25.1983 158.711 25.1983C158.113 25.1983 157.645 24.757 157.645 24.0543C157.645 23.3146 158.136 22.8782 158.747 22.8782C159.386 22.8782 159.818 23.3421 159.818 24.0175Z" fill="#1A1F71"/>
<path d="M160.437 23.5258C160.437 23.2917 160.432 23.1079 160.419 22.9241H160.777L160.8 23.2917H160.809C160.92 23.0848 161.177 22.8782 161.544 22.8782C161.852 22.8782 162.33 23.062 162.33 23.8244V25.1477H161.926V23.8659C161.926 23.5077 161.793 23.2089 161.411 23.2089C161.149 23.2089 160.943 23.3973 160.869 23.6224C160.851 23.673 160.842 23.7418 160.842 23.8108V25.1477H160.437V23.5258Z" fill="#1A1F71"/>
<path d="M225.548 0.666626L226.057 0.667293C226.196 0.667959 226.335 0.669959 226.476 0.673292C226.73 0.679959 227.029 0.693958 227.316 0.745956C227.582 0.793954 227.808 0.867951 228.026 0.978613C228.467 1.20212 228.826 1.56035 229.049 2.00124C229.16 2.21856 229.233 2.44389 229.281 2.71054C229.333 2.9952 229.347 3.29452 229.353 3.54984C229.357 3.6885 229.359 3.82783 229.36 3.96849C229.361 4.13715 229.361 4.30714 229.361 4.47647V27.5235C229.361 27.6928 229.361 27.8622 229.36 28.0335C229.359 28.1724 229.357 28.3113 229.353 28.4501C229.347 28.7055 229.333 29.0048 229.281 29.2914C229.24 29.5375 229.161 29.7759 229.049 29.9987C228.824 30.4392 228.466 30.7974 228.025 31.022C227.802 31.1346 227.563 31.213 227.316 31.2547C227.039 31.2991 226.759 31.3232 226.478 31.3267C226.337 31.33 226.197 31.332 226.055 31.332C225.886 31.3333 225.716 31.3333 225.547 31.3333H184.474C184.307 31.3333 184.139 31.3333 183.97 31.332C183.83 31.332 183.69 31.33 183.553 31.3267C183.271 31.323 182.99 31.299 182.712 31.2547C182.465 31.2134 182.225 31.1347 182.002 31.0214C181.782 30.9103 181.582 30.7649 181.409 30.5907C181.235 30.4174 181.09 30.2176 180.979 29.9987C180.867 29.7753 180.788 29.5362 180.747 29.2894C180.701 29.0119 180.677 28.7313 180.674 28.4501C180.671 28.311 180.669 28.1719 180.668 28.0328L180.667 27.6262V4.37447L180.668 3.96849C180.669 3.82916 180.671 3.68983 180.674 3.54984C180.681 3.29585 180.695 2.9972 180.747 2.70921C180.788 2.46257 180.866 2.22362 180.979 2.00057C181.203 1.56018 181.561 1.20229 182.002 0.978613C182.226 0.86601 182.465 0.787796 182.711 0.746623C182.99 0.701318 183.271 0.677028 183.553 0.673959C183.692 0.670626 183.832 0.668626 183.971 0.667959L184.48 0.666626H225.548Z" fill="white"/>
<path d="M225.548 0.666639L226.057 0.667306C226.196 0.667972 226.335 0.669972 226.476 0.673305C226.73 0.679972 227.029 0.693971 227.316 0.745969C227.582 0.793967 227.808 0.867964 228.026 0.978626C228.467 1.20213 228.826 1.56036 229.049 2.00125C229.16 2.21857 229.233 2.4439 229.281 2.71055C229.333 2.99521 229.347 3.29453 229.353 3.54985C229.357 3.68851 229.359 3.82784 229.36 3.9685C229.361 4.13716 229.361 4.30715 229.361 4.47648V27.5235C229.361 27.6928 229.361 27.8622 229.36 28.0335C229.359 28.1724 229.357 28.3113 229.353 28.4501C229.347 28.7055 229.333 29.0048 229.281 29.2914C229.24 29.5375 229.161 29.7759 229.049 29.9988C228.824 30.4392 228.466 30.7974 228.025 31.022C227.802 31.1346 227.563 31.213 227.316 31.2547C227.039 31.2991 226.759 31.3232 226.478 31.3267C226.337 31.33 226.197 31.332 226.055 31.332C225.886 31.3334 225.716 31.3334 225.547 31.3334H184.474C184.307 31.3334 184.139 31.3334 183.97 31.332C183.83 31.332 183.69 31.33 183.553 31.3267C183.271 31.323 182.99 31.299 182.712 31.2547C182.465 31.2134 182.225 31.1347 182.002 31.0214C181.782 30.9104 181.582 30.765 181.409 30.5907C181.235 30.4174 181.09 30.2176 180.979 29.9988C180.867 29.7753 180.788 29.5362 180.747 29.2894C180.701 29.0119 180.677 28.7313 180.674 28.4501C180.671 28.3111 180.669 28.172 180.668 28.0328L180.667 27.6262V4.37448L180.668 3.9685C180.669 3.82917 180.671 3.68985 180.674 3.54985C180.681 3.29586 180.695 2.99721 180.747 2.70922C180.788 2.46258 180.866 2.22364 180.979 2.00058C181.203 1.56019 181.562 1.2023 182.002 0.978626C182.226 0.866023 182.465 0.787809 182.712 0.746636C182.99 0.701331 183.271 0.677041 183.553 0.673972C183.692 0.670639 183.832 0.668639 183.971 0.667972L184.48 0.666639H225.548ZM225.548 0H184.48L183.967 0.000666639C183.823 0.00133328 183.679 0.00333319 183.535 0.00733303C183.22 0.0115222 182.905 0.0391529 182.594 0.0899963C182.283 0.143419 181.981 0.24272 181.699 0.384651C181.134 0.673611 180.674 1.13339 180.385 1.6986C180.243 1.98019 180.143 2.28153 180.09 2.59256C180.039 2.90334 180.011 3.21755 180.007 3.53252C180.003 3.67585 180.001 3.81984 180.001 3.96384L180 4.47648V27.5235L180.001 28.0368C180.001 28.1808 180.003 28.3248 180.007 28.4681C180.016 28.7815 180.035 29.0975 180.091 29.4074C180.147 29.7228 180.24 30.0154 180.385 30.3014C180.673 30.8677 181.133 31.3279 181.7 31.6154C181.986 31.7613 182.279 31.8533 182.594 31.91C182.904 31.9653 183.221 31.984 183.535 31.9927C183.679 31.9967 183.822 31.9987 183.967 31.9987C184.138 32 184.309 32 184.48 32H225.548C225.719 32 225.89 32 226.061 31.9987C226.205 31.998 226.349 31.996 226.494 31.9927C226.807 31.984 227.123 31.9653 227.434 31.91C227.745 31.8566 228.047 31.7573 228.328 31.6154C228.895 31.3282 229.356 30.8679 229.643 30.3014C229.79 30.0154 229.882 29.7228 229.938 29.4074C229.994 29.0975 230.012 28.7815 230.02 28.4681C230.024 28.3242 230.026 28.1802 230.027 28.0368C230.028 27.8655 230.028 27.6948 230.028 27.5235V4.47648C230.028 4.30515 230.028 4.13449 230.027 3.96317C230.027 3.81938 230.024 3.67559 230.02 3.53185C230.017 3.2169 229.989 2.90269 229.938 2.59189C229.885 2.28089 229.786 1.97956 229.643 1.69793C229.355 1.13208 228.895 0.672085 228.328 0.383984C228.047 0.242061 227.745 0.142759 227.434 0.0893296C227.123 0.0385425 226.809 0.0109121 226.494 0.00666639C226.349 0.00266656 226.205 0.00133328 226.061 0H225.548V0Z" fill="black"/>
<path d="M194.916 9.60093C195.378 9.04162 195.689 8.26432 195.605 7.48969C194.937 7.51702 194.131 7.935 193.656 8.49231C193.225 8.98696 192.853 9.77892 192.956 10.5382C193.698 10.5956 194.454 10.1602 194.916 9.60093ZM196.833 14.5167C196.818 12.8415 198.201 12.0355 198.265 11.9955C197.485 10.8622 196.275 10.7049 195.844 10.6876C194.813 10.5856 193.831 11.2942 193.309 11.2942C192.786 11.2942 191.982 10.7036 191.125 10.7216C190.001 10.7376 188.965 11.3742 188.387 12.3788C187.222 14.4074 188.091 17.4033 189.228 19.0439C189.785 19.8472 190.446 20.7498 191.318 20.7171C192.158 20.6845 192.473 20.1745 193.487 20.1745C194.499 20.1732 194.785 20.7158 195.669 20.7005C196.571 20.6811 197.144 19.8805 197.697 19.0732C198.333 18.1432 198.596 17.2399 198.61 17.1946C198.592 17.1826 196.853 16.52 196.833 14.5167ZM207.572 9.60026C207.236 9.27628 206.802 9.02429 206.283 8.85096C205.769 8.67964 205.151 8.59297 204.447 8.59297C203.996 8.59097 203.546 8.61434 203.097 8.66297C202.724 8.70464 202.351 8.75688 201.98 8.81963L201.872 8.8383V20.6158H202.948V15.654C203.31 15.716 203.725 15.7487 204.183 15.7487C204.792 15.7487 205.362 15.6707 205.879 15.518C206.376 15.3768 206.838 15.1357 207.239 14.8094C207.624 14.4875 207.934 14.0849 208.147 13.6301C208.367 13.1634 208.479 12.6148 208.479 11.9975C208.479 11.4869 208.398 11.0275 208.241 10.6322C208.089 10.2474 207.861 9.8966 207.572 9.60026ZM206.583 14.0987C206.031 14.5614 205.249 14.796 204.257 14.796C203.984 14.796 203.726 14.784 203.489 14.762C203.307 14.7456 203.126 14.7153 202.949 14.6714V9.66293C203.091 9.63693 203.267 9.61226 203.474 9.59026C203.736 9.56227 204.051 9.54827 204.413 9.54827C204.828 9.54413 205.242 9.59775 205.643 9.70759C205.984 9.80139 206.305 9.95832 206.588 10.1702C206.846 10.3702 207.049 10.6302 207.19 10.9435C207.332 11.2609 207.403 11.6395 207.403 12.0682C207.403 12.9581 207.127 13.6414 206.583 14.0987ZM214.912 19.5132C214.9 19.1799 214.895 18.8452 214.895 18.5119V15.238C214.895 14.85 214.856 14.4541 214.779 14.0607C214.705 13.6694 214.553 13.2968 214.333 12.9648C214.114 12.6368 213.808 12.3661 213.425 12.1595C213.042 11.9535 212.544 11.8495 211.944 11.8495C211.507 11.8495 211.079 11.9062 210.675 12.0188C210.252 12.1407 209.851 12.3312 209.488 12.5828L209.401 12.6435L209.765 13.4934L209.896 13.4048C210.183 13.2123 210.497 13.0631 210.828 12.9621C211.162 12.8577 211.51 12.8042 211.86 12.8035C212.308 12.8035 212.666 12.8848 212.922 13.0448C213.181 13.2068 213.377 13.4074 213.503 13.6421C213.635 13.8841 213.721 14.1414 213.759 14.4087C213.799 14.6867 213.819 14.9354 213.819 15.1487V15.2434C212.223 15.236 210.978 15.5014 210.15 16.034C209.282 16.5926 208.842 17.3879 208.842 18.3972C208.842 18.6879 208.894 18.9805 208.997 19.2699C209.101 19.5625 209.259 19.8245 209.466 20.0485C209.674 20.2752 209.943 20.4598 210.264 20.5978C210.585 20.7371 210.962 20.8071 211.383 20.8071C211.979 20.8171 212.565 20.6568 213.073 20.3452C213.295 20.2085 213.492 20.0532 213.66 19.8858C213.732 19.8139 213.8 19.7387 213.865 19.6605H213.906L214.005 20.6165H215.042L215.014 20.4631C214.957 20.1494 214.923 19.8319 214.912 19.5132ZM213.819 17.8359C213.819 17.9506 213.791 18.1079 213.739 18.2966C213.67 18.5007 213.572 18.6943 213.45 18.8719C213.177 19.2706 212.781 19.5692 212.323 19.7218C212.045 19.8133 211.753 19.8577 211.46 19.8532C211.267 19.8532 211.075 19.8205 210.893 19.7565C210.716 19.695 210.554 19.5979 210.416 19.4712C210.272 19.3348 210.157 19.1697 210.081 18.9865C209.996 18.7912 209.954 18.5492 209.954 18.2679C209.954 17.8073 210.078 17.4333 210.321 17.16C210.583 16.8687 210.913 16.6456 211.281 16.51C211.697 16.3534 212.133 16.2541 212.577 16.2147C212.99 16.1749 213.404 16.1569 213.819 16.1607V17.8359ZM222.215 12.0408L220.207 17.4959C220.082 17.8253 219.965 18.1572 219.858 18.4806C219.806 18.6419 219.757 18.7945 219.708 18.9399H219.67C219.62 18.7807 219.569 18.6218 219.517 18.4632C219.413 18.1432 219.3 17.8293 219.186 17.5299L217.038 12.0408H215.89L218.962 19.9325C219.043 20.1225 219.055 20.2098 219.055 20.2452C219.055 20.2558 219.051 20.3205 218.961 20.5605C218.793 20.9887 218.574 21.3952 218.309 21.7711C218.063 22.1057 217.837 22.3777 217.636 22.5784C217.403 22.8117 217.162 23.003 216.917 23.1477C216.667 23.295 216.439 23.4144 216.237 23.5044L216.121 23.5564L216.495 24.465L216.614 24.421C216.711 24.3843 216.894 24.301 217.171 24.1657C217.452 24.0277 217.762 23.809 218.093 23.513C218.386 23.255 218.646 22.9619 218.868 22.6404C219.095 22.3151 219.322 21.9331 219.545 21.5091C219.765 21.0858 219.985 20.6045 220.2 20.0772C220.415 19.5472 220.646 18.9545 220.884 18.3179L223.365 12.0408H222.215Z" fill="black"/>
<path d="M290.542 14.9774L278.351 0.73221C278.075 0.308886 277.629 0.0276775 277.098 0.0276775C276.288 0.0276775 275.633 0.683781 275.633 1.49267C275.633 1.91959 275.816 2.30314 276.106 2.57094L287.15 15.9595L276.229 29.094H271.511L281.853 17.0634C282.14 16.7471 282.268 16.3778 282.262 16.0138C282.268 15.6499 282.145 15.3191 281.864 14.9788C281.864 14.9788 269.502 0.749363 269.499 0.745327C269.142 0.317102 268.775 0.0276775 268.239 0.0276775H259.583C258.774 0.0276775 258.118 0.683781 258.118 1.49267C258.118 1.7387 258.151 1.99397 258.285 2.17356L269.757 16.0682L259.98 27.7979C259.921 27.8561 259.079 29.0565 257.598 29.0565H245.845C244.257 29.0565 242.94 27.8169 242.94 26.1715V5.83848C242.94 4.40607 244.256 2.93416 245.881 2.93416H253.222C254.078 2.93416 254.686 2.34969 254.686 1.49267C254.686 0.636648 254.078 1.90735e-06 253.222 1.90735e-06L245.809 0.0292606C242.335 0.0292606 240 2.8951 240 5.80879V26.1715C240 29.3078 242.765 31.9801 245.809 31.9801H257.559C258.148 31.9801 258.687 31.8942 259.172 31.756C259.241 31.7367 259.309 31.7155 259.376 31.6939C260.985 31.1722 261.956 30.1003 262.145 29.8733L273.147 17.0502C273.668 16.4604 273.714 15.6392 273.157 14.9648L262.728 2.93387H267.532L278.408 16.0138L266.963 29.8204C266.959 29.8237 266.966 29.8358 266.983 29.8543C266.876 30.0581 266.815 30.2891 266.815 30.5352C266.815 31.3445 267.471 32 268.28 32H276.936C277.471 32 277.94 31.7122 278.195 31.2825C278.198 31.2789 278.201 31.2756 278.204 31.2727L290.529 17.0843C290.535 17.0776 290.542 17.0698 290.547 17.0624L290.549 17.0634C291.131 16.4245 291.062 15.568 290.542 14.9774Z" fill="black"/>
</svg>
